<?xml version="1.0" encoding="UTF-8" standalone="no"?><!DOCTYPE svg PUBLIC "-//W3C//DTD SVG 1.1//EN" "http://www.w3.org/Graphics/SVG/1.1/DTD/svg11.dtd"><svg width="100%" height="100%" viewBox="0 0 512 70" version="1.1" xmlns="http://www.w3.org/2000/svg" xmlns:xlink="http://www.w3.org/1999/xlink" xml:space="preserve" xmlns:serif="http://www.serif.com/" style="fill-rule:evenodd;clip-rule:evenodd;stroke-linejoin:round;stroke-miterlimit:2;"><g><g><path d="M47.692,30.758c-0.065,-0.982 -0.13,-1.964 -0.303,-2.945c-1.641,-9.271 -8.496,-14.725 -22.457,-14.725c-18.869,0 -24.562,8.508 -23.172,16.361c1.64,9.271 7.032,13.852 24.851,17.778c5.121,1.2 7.989,2.618 8.511,5.563c0.752,4.254 -3.937,6.108 -9.717,6.108c-5.672,0 -9.837,-1.963 -10.609,-6.326c-0.097,-0.546 -0.193,-1.091 -0.181,-1.636l-14.615,0c0.065,0.981 0.129,1.963 0.284,2.836c1.718,9.707 11.197,15.815 25.267,15.815c17.233,0 25.692,-8.29 23.8,-18.979c-2.046,-11.561 -8.886,-11.997 -24.928,-16.36c-5.268,-1.418 -8.246,-2.836 -8.709,-5.454c-0.657,-3.708 2.365,-5.126 8.8,-5.126c6.217,0 8.559,1.527 9.544,7.09l13.634,0Z" style="fill:#fff;fill-rule:nonzero;"/><path d="M103.229,45.046c-0.022,-3.818 -0.312,-7.308 -0.872,-10.471c-2.529,-14.288 -10.784,-21.487 -24.308,-21.487c-19.197,0 -29.217,13.634 -25.55,34.357c2.568,14.507 11.445,22.142 26.497,22.142c11.452,0 20.277,-6.217 23.563,-17.233l-14.616,0c-0.979,3.708 -5.046,5.998 -9.627,5.998c-6.217,0 -10.376,-3.163 -11.727,-10.797l-0.444,-2.509l37.084,0Zm-37.031,-8.944c0.895,-6.653 4.241,-11.779 11.44,-11.779c4.799,0 9.451,1.636 10.667,8.507c0.174,0.982 0.367,2.072 0.361,3.272l-22.468,0Z" style="fill:#fff;fill-rule:nonzero;"/><path d="M156.839,68.169l-0.039,-37.193c-0.033,-1.418 -0.174,-2.836 -0.406,-4.145c-1.583,-8.944 -8.431,-13.743 -17.375,-13.743c-8.617,0 -14.036,3.273 -17.337,9.271l0.028,-7.853l-13.525,0l0.009,53.663l14.179,0l0.009,-30.758c-0.03,-8.18 3.6,-12.325 11.016,-12.325c5.345,0 7.957,1.2 8.806,5.999c0.232,1.309 0.393,2.836 0.375,4.581l-0.028,32.503l14.288,0Z" style="fill:#fff;fill-rule:nonzero;"/><path d="M208.897,30.758c-0.065,-0.982 -0.129,-1.964 -0.303,-2.945c-1.641,-9.271 -8.496,-14.725 -22.457,-14.725c-18.869,0 -24.562,8.508 -23.172,16.361c1.641,9.271 7.033,13.852 24.852,17.778c5.12,1.2 7.989,2.618 8.51,5.563c0.753,4.254 -3.936,6.108 -9.717,6.108c-5.672,0 -9.836,-1.963 -10.609,-6.326c-0.096,-0.546 -0.193,-1.091 -0.18,-1.636l-14.616,0c0.065,0.981 0.13,1.963 0.284,2.836c1.718,9.707 11.198,15.815 25.268,15.815c17.233,0 25.691,-8.29 23.799,-18.979c-2.046,-11.561 -8.886,-11.997 -24.927,-16.36c-5.269,-1.418 -8.246,-2.836 -8.71,-5.454c-0.656,-3.708 2.365,-5.126 8.8,-5.126c6.217,0 8.56,1.527 9.544,7.09l13.634,0Z" style="fill:#fff;fill-rule:nonzero;"/><path d="M287.505,68.169l-0.034,-27.922c0.002,-8.617 4.247,-12.979 12.973,-12.979c1.308,0 2.637,0.109 3.984,0.327l-0.059,-14.507l-1.854,0c-5.781,0 -11.228,0.655 -15.952,7.853l0.061,-6.435l-13.307,0l0.009,53.663l14.179,0Z" style="fill:#fff;fill-rule:nonzero;"/></g><g><path d="M369.683,32.83l-13.198,0l0.072,13.961c-0.022,6.653 -2.837,10.471 -8.29,10.471c-4.581,0 -7.072,-1.745 -7.902,-6.435c-0.212,-1.2 -0.354,-2.618 -0.316,-4.254l0.027,-22.032l29.667,0l-0.031,-10.035l-29.667,0l-0.059,-14.506l-13.961,0l0.096,47.991c-0.019,1.745 0.181,3.49 0.471,5.126c1.64,9.271 8.15,16.47 21.456,16.47c15.161,0 21.546,-10.144 21.611,-21.487l0.024,-15.27Z" style="fill:#fff;fill-rule:nonzero;"/><path d="M389.68,68.169l-0.033,-27.922c0.002,-8.617 4.247,-12.979 12.972,-12.979c1.309,0 2.637,0.109 3.985,0.327l-0.059,-14.507l-1.854,0c-5.781,0 -11.228,0.655 -15.953,7.853l0.061,-6.435l-13.306,0l0.008,53.663l14.179,0Z" style="fill:#fff;fill-rule:nonzero;"/><path d="M457.138,45.046c-0.021,-3.818 -0.312,-7.308 -0.872,-10.471c-2.529,-14.288 -10.783,-21.487 -24.308,-21.487c-19.196,0 -29.217,13.634 -25.549,34.357c2.567,14.507 11.444,22.142 26.496,22.142c11.452,0 20.277,-6.217 23.563,-17.233l-14.615,0c-0.98,3.708 -5.047,5.998 -9.628,5.998c-6.217,0 -10.376,-3.163 -11.727,-10.797l-0.444,-2.509l37.084,0Zm-37.031,-8.944c0.895,-6.653 4.241,-11.779 11.44,-11.779c4.799,0 9.451,1.636 10.667,8.507c0.174,0.982 0.367,2.072 0.361,3.272l-22.468,0Z" style="fill:#fff;fill-rule:nonzero;"/><path d="M512,45.046c-0.021,-3.818 -0.312,-7.308 -0.872,-10.471c-2.528,-14.288 -10.783,-21.487 -24.308,-21.487c-19.196,0 -29.217,13.634 -25.549,34.357c2.567,14.507 11.444,22.142 26.496,22.142c11.452,0 20.278,-6.217 23.563,-17.233l-14.615,0c-0.98,3.708 -5.046,5.998 -9.627,5.998c-6.217,0 -10.377,-3.163 -11.728,-10.797l-0.444,-2.509l37.084,0Zm-37.031,-8.944c0.895,-6.653 4.241,-11.779 11.44,-11.779c4.799,0 9.452,1.636 10.668,8.507c0.173,0.982 0.367,2.072 0.361,3.272l-22.469,0Z" style="fill:#fff;fill-rule:nonzero;"/></g></g><g><path d="M220.312,52.116c7.101,9.113 21.229,1.611 18.06,16.109l11.09,0c-4.152,-8.288 -4.548,-20.942 14.734,-20.942l-43.884,4.833Z" style="fill:#cce875;"/><path d="M227.305,30.382c-0.015,-0.271 -0.023,-0.544 -0.023,-0.819c0,-8.001 6.389,-14.498 14.259,-14.498c7.596,0 13.813,6.054 14.235,13.67c5.6,1.957 9.629,7.361 9.629,13.716c0,8.001 -6.389,14.498 -14.259,14.498c-3.267,0 -6.279,-1.12 -8.684,-3.002c-2.603,2.837 -6.313,4.613 -10.427,4.613c-7.869,0 -14.258,-6.497 -14.258,-14.498c0,-6.316 3.98,-11.694 9.528,-13.68Z" style="fill:#cce875;"/></g></svg>