<?xml version="1.0" encoding="UTF-8" standalone="no"?><!DOCTYPE svg PUBLIC "-//W3C//DTD SVG 1.1//EN" "http://www.w3.org/Graphics/SVG/1.1/DTD/svg11.dtd"><svg width="100%" height="100%" viewBox="0 0 9 46" version="1.1" xmlns="http://www.w3.org/2000/svg" xmlns:xlink="http://www.w3.org/1999/xlink" xml:space="preserve" xmlns:serif="http://www.serif.com/" style="fill-rule:evenodd;clip-rule:evenodd;stroke-linejoin:round;stroke-miterlimit:2;"><path id="export" d="M8.5,17.75c-0,-2.209 -1.791,-4 -4,-4c-0,-0 -0,-0 -0,-0c-2.209,0 -4,1.791 -4,4c-0,6.048 -0,17.452 -0,23.5c0,2.209 1.791,4 4,4c0,-0 0,-0 0,-0c2.209,-0 4,-1.791 4,-4c0,-6.048 0,-17.452 0,-23.5Zm-4,-17.75c2.484,0 4.5,2.016 4.5,4.5c0,2.484 -2.016,4.5 -4.5,4.5c-2.484,-0 -4.5,-2.016 -4.5,-4.5c0,-2.484 2.016,-4.5 4.5,-4.5Z" style="fill:#e8e8e8;"/></svg>