<?xml version="1.0" encoding="UTF-8" standalone="no"?><!DOCTYPE svg PUBLIC "-//W3C//DTD SVG 1.1//EN" "http://www.w3.org/Graphics/SVG/1.1/DTD/svg11.dtd"><svg width="100%" height="100%" viewBox="0 0 66 68" version="1.1" xmlns="http://www.w3.org/2000/svg" xmlns:xlink="http://www.w3.org/1999/xlink" xml:space="preserve" xmlns:serif="http://www.serif.com/" style="fill-rule:evenodd;clip-rule:evenodd;stroke-linejoin:round;stroke-miterlimit:2;"><path id="export" d="M43.722,4.575l1.982,-4.575l7.63,13.658l-15.183,3.776l2.335,-5.388c-11.941,-4.151 -25.242,1.556 -30.348,13.343c-5.347,12.345 0.333,26.708 12.678,32.056c12.344,5.347 26.708,-0.333 32.055,-12.678c2.57,-5.932 2.678,-12.641 0.3,-18.653l7.556,-2.988c3.17,8.015 3.026,16.962 -0.4,24.871c-7.13,16.459 -26.282,24.033 -42.741,16.903c-16.459,-7.13 -24.033,-26.281 -16.903,-42.74c6.89,-15.906 24.972,-23.509 41.039,-17.585Z" style="fill:#e8e8e8;"/></svg>