<?xml version="1.0" encoding="UTF-8" standalone="no"?><!DOCTYPE svg PUBLIC "-//W3C//DTD SVG 1.1//EN" "http://www.w3.org/Graphics/SVG/1.1/DTD/svg11.dtd"><svg width="100%" height="100%" viewBox="0 0 64 64" version="1.1" xmlns="http://www.w3.org/2000/svg" xmlns:xlink="http://www.w3.org/1999/xlink" xml:space="preserve" xmlns:serif="http://www.serif.com/" style="fill-rule:evenodd;clip-rule:evenodd;stroke-linecap:round;stroke-linejoin:round;stroke-miterlimit:1.5;"><path d="M28.372,49.785l0,-44.559c0,-2.282 1.618,-4.132 3.615,-4.132c0.009,0 0.017,0 0.026,0c1.997,0 3.615,1.85 3.615,4.132l0,44.559c2.057,1.235 3.434,3.487 3.434,6.059c0,3.898 -3.164,7.062 -7.062,7.062c-3.898,0 -7.062,-3.164 -7.062,-7.062c0,-2.572 1.377,-4.824 3.434,-6.059Z" style="fill:none;"/><clipPath id="_clip1"><path d="M28.372,49.785l0,-44.559c0,-2.282 1.618,-4.132 3.615,-4.132c0.009,0 0.017,0 0.026,0c1.997,0 3.615,1.85 3.615,4.132l0,44.559c2.057,1.235 3.434,3.487 3.434,6.059c0,3.898 -3.164,7.062 -7.062,7.062c-3.898,0 -7.062,-3.164 -7.062,-7.062c0,-2.572 1.377,-4.824 3.434,-6.059Z"/></clipPath><g clip-path="url(#_clip1)"><rect x="28.372" y="1.094" width="7.257" height="21.406" style="fill:#ffffff;"/></g><path d="M28.372,49.785l0,-44.559c0,-2.282 1.618,-4.132 3.615,-4.132c0.009,0 0.017,0 0.026,0c1.997,0 3.615,1.85 3.615,4.132l0,44.559c2.057,1.235 3.434,3.487 3.434,6.059c0,3.898 -3.164,7.062 -7.062,7.062c-3.898,0 -7.062,-3.164 -7.062,-7.062c0,-2.572 1.377,-4.824 3.434,-6.059Z" style="fill:none;stroke:#ffffff;stroke-width:2px;"/><g><rect x="39.062" y="5.187" width="2.5" height="1" style="fill:#ffffff;"/><rect x="39.062" y="8.187" width="2.5" height="1" style="fill:#ffffff;"/><rect x="39.062" y="11.187" width="2.5" height="1" style="fill:#ffffff;"/><rect x="39.062" y="14.187" width="2.5" height="1" style="fill:#ffffff;"/><rect x="39.062" y="17.187" width="2.5" height="1" style="fill:#ffffff;"/><rect x="39.062" y="20.187" width="2.5" height="1" style="fill:#ffffff;"/><rect x="39.062" y="23.187" width="2.5" height="1" style="fill:#ffffff;"/><rect x="39.062" y="26.187" width="2.5" height="1" style="fill:#ffffff;"/><rect x="39.062" y="29.187" width="2.5" height="1" style="fill:#ffffff;"/><rect x="39.062" y="32.187" width="2.5" height="1" style="fill:#ffffff;"/><rect x="39.062" y="35.187" width="2.5" height="1" style="fill:#ffffff;"/><rect x="39.062" y="38.187" width="2.5" height="1" style="fill:#ffffff;"/><rect x="39.062" y="41.187" width="2.5" height="1" style="fill:#ffffff;"/><rect x="39.062" y="44.187" width="2.5" height="1" style="fill:#ffffff;"/><rect x="39.062" y="47.187" width="2.5" height="1" style="fill:#ffffff;"/></g><path d="M3,45.187l7,-8.617l8.072,0l6.866,-7.57" style="fill:none;stroke:#ffffff;stroke-width:2px;"/><path d="M45,19l5,-2.5l8.938,6" style="fill:none;stroke:#ffffff;stroke-width:2px;"/></svg>